# xmcd CD database file
#
# Track frame offsets:
#	150
#	11333
#	23678
#	37523
#	48311
#	60394
#	73762
#	82976
#	96502
#	107392
#	118507
#	129918
#	140028
#	152297
#	163441
#	172501
#	183513
#	192705
#	204286
#	214430
#
# Disc length: 3006 seconds
#
# Revision: 0
# Processed by: cddbd v1.4PL0 Copyright (c) Steve Scherf et al.
# Submitted via: CDex 1.50
#
DISCID=030bbc14
DTITLE=George Jones - White Lightning
DYEAR=1900
DGENRE=Country
TTITLE0=Least of All
TTITLE1=She's just A Girl I Used To Know
TTITLE2=It's Funny What A Fool Will Do
TTITLE3=Tender Years
TTITLE4=Take Me
TTITLE5=Things Have Gone To Pieces
TTITLE6=The Race Is On
TTITLE7=A Good Year For The Roses
TTITLE8=Say It's Not You
TTITLE9=You Comb Her Hair
TTITLE10=White Lightning
TTITLE11=Walk Through This World With Me
TTITLE12=If My Heart Had Windows
TTITLE13=I'll Share My World With You
TTITLE14=Old Brush Arbors
TTITLE15=Once A Day
TTITLE16=The World's Worst Loser
TTITLE17=Accidently On Purpose
TTITLE18=Developing My Pictures
TTITLE19=I'm Wasting Good Paper
EXTD=
EXTT0=
EXTT1=
EXTT2=
EXTT3=
EXTT4=
EXTT5=
EXTT6=
EXTT7=
EXTT8=
EXTT9=
EXTT10=
EXTT11=
EXTT12=
EXTT13=
EXTT14=
EXTT15=
EXTT16=
EXTT17=
EXTT18=
EXTT19=
PLAYORDER=
